<svg xmlns="http://www.w3.org/2000/svg" xmlns:xlink="http://www.w3.org/1999/xlink" width="1366" zoomAndPan="magnify" viewBox="0 0 1024.5 576" height="768" preserveAspectRatio="xMidYMid meet" version="1.0"><defs><g/></defs><g fill="#770000" fill-opacity="1"><g transform="translate(183.771515, 320.373708)"><g><path d="M 25.84375 -12.8125 L 5.671875 -34.78125 L 25.84375 -56.75 L 47.203125 -56.75 L 26.9375 -34.78125 L 47.203125 -12.8125 Z M 25.84375 -12.8125 "/></g></g></g><g fill="#770000" fill-opacity="1"><g transform="translate(245.486328, 320.373708)"><g><path d="M 44.015625 -94.40625 L 17.390625 18.578125 L 1 18.578125 L 27.625 -94.40625 Z M 44.015625 -94.40625 "/></g></g></g><g fill="#770000" fill-opacity="1"><g transform="translate(297.461923, 320.373708)"><g><path d="M 32.296875 -69.765625 C 39.648438 -69.765625 46.078125 -68.304688 51.578125 -65.390625 C 57.078125 -62.472656 61.332031 -58.378906 64.34375 -53.109375 C 67.351562 -47.847656 68.859375 -41.769531 68.859375 -34.875 C 68.859375 -28.050781 67.351562 -21.988281 64.34375 -16.6875 C 61.332031 -11.394531 57.0625 -7.289062 51.53125 -4.375 C 46 -1.457031 39.585938 0 32.296875 0 L 6.15625 0 L 6.15625 -69.765625 Z M 31.203125 -14.703125 C 37.628906 -14.703125 42.628906 -16.457031 46.203125 -19.96875 C 49.785156 -23.476562 51.578125 -28.445312 51.578125 -34.875 C 51.578125 -41.300781 49.785156 -46.300781 46.203125 -49.875 C 42.628906 -53.457031 37.628906 -55.25 31.203125 -55.25 L 23.15625 -55.25 L 23.15625 -14.703125 Z M 31.203125 -14.703125 "/></g></g></g><g fill="#770000" fill-opacity="1"><g transform="translate(376.667571, 320.373708)"><g><path d="M 49.59375 -12.328125 L 23.546875 -12.328125 L 19.375 0 L 1.59375 0 L 26.828125 -69.765625 L 46.5 -69.765625 L 71.75 0 L 53.765625 0 Z M 45.21875 -25.4375 L 36.5625 -50.984375 L 28.03125 -25.4375 Z M 45.21875 -25.4375 "/></g></g></g><g fill="#770000" fill-opacity="1"><g transform="translate(456.866988, 320.373708)"><g><path d="M 56.34375 -69.765625 L 56.34375 -56.140625 L 37.859375 -56.140625 L 37.859375 0 L 20.875 0 L 20.875 -56.140625 L 2.390625 -56.140625 L 2.390625 -69.765625 Z M 56.34375 -69.765625 "/></g></g></g><g fill="#770000" fill-opacity="1"><g transform="translate(522.556983, 320.373708)"><g><path d="M 49.59375 -12.328125 L 23.546875 -12.328125 L 19.375 0 L 1.59375 0 L 26.828125 -69.765625 L 46.5 -69.765625 L 71.75 0 L 53.765625 0 Z M 45.21875 -25.4375 L 36.5625 -50.984375 L 28.03125 -25.4375 Z M 45.21875 -25.4375 "/></g></g></g><g fill="#770000" fill-opacity="1"><g transform="translate(602.756423, 320.373708)"><g><path d="M 68.5625 0 L 51.578125 0 L 23.15625 -43.03125 L 23.15625 0 L 6.15625 0 L 6.15625 -69.765625 L 23.15625 -69.765625 L 51.578125 -26.53125 L 51.578125 -69.765625 L 68.5625 -69.765625 Z M 68.5625 0 "/></g></g></g><g fill="#770000" fill-opacity="1"><g transform="translate(684.446545, 320.373708)"><g><path d="M 23.15625 -69.765625 L 23.15625 0 L 6.15625 0 L 6.15625 -69.765625 Z M 23.15625 -69.765625 "/></g></g></g><g fill="#770000" fill-opacity="1"><g transform="translate(720.720144, 320.373708)"><g><path d="M 56.34375 -69.765625 L 56.34375 -56.140625 L 37.859375 -56.140625 L 37.859375 0 L 20.875 0 L 20.875 -56.140625 L 2.390625 -56.140625 L 2.390625 -69.765625 Z M 56.34375 -69.765625 "/></g></g></g><g fill="#770000" fill-opacity="1"><g transform="translate(786.410162, 320.373708)"><g><path d="M 6.265625 -56.75 L 27.625 -56.75 L 47.796875 -34.78125 L 27.625 -12.8125 L 6.265625 -12.8125 L 26.53125 -34.78125 Z M 6.265625 -56.75 "/></g></g></g></svg>